<svg xmlns:xlink="http://www.w3.org/1999/xlink" fill="none" height="21" viewBox="0 0 21 21" width="21" xmlns="http://www.w3.org/2000/svg"><path d="M6.4 0.6C7.5 0.5 7.8 0.5 10.5 0.5 13.3 0.5 13.6 0.5 14.7 0.6 15.7 0.6 16.5 0.8 17.1 1 17.7 1.3 18.3 1.6 18.9 2.2 19.4 2.7 19.8 3.3 20 3.9 20.2 4.6 20.4 5.3 20.5 6.4 20.5 7.4 20.5 7.8 20.5 10.5 20.5 13.2 20.5 13.5 20.5 14.6 20.4 15.7 20.2 16.4 20 17 19.7 17.7 19.4 18.2 18.9 18.8 18.3 19.3 17.7 19.7 17.1 19.9 16.4 20.2 15.7 20.4 14.7 20.4 13.6 20.4 13.3 20.5 10.5 20.5 7.8 20.5 7.5 20.4 6.4 20.4 5.4 20.4 4.6 20.2 4 19.9 3.4 19.7 2.8 19.3 2.2 18.8 1.7 18.2 1.3 17.7 1.1 17 0.8 16.4 0.7 15.7 0.6 14.6 0.6 13.5 0.6 13.2 0.6 10.5 0.6 7.8 0.6 7.4 0.6 6.4 0.7 5.3 0.8 4.6 1.1 3.9 1.3 3.3 1.7 2.7 2.2 2.2 2.8 1.6 3.4 1.3 4 1 4.6 0.8 5.4 0.6 6.4 0.6ZM14.6 2.4C13.5 2.3 13.2 2.3 10.5 2.3 7.9 2.3 7.6 2.3 6.5 2.4 5.5 2.4 5 2.6 4.7 2.7 4.2 2.9 3.9 3.1 3.5 3.5 3.2 3.8 2.9 4.1 2.8 4.6 2.6 5 2.5 5.5 2.4 6.5 2.4 7.5 2.4 7.8 2.4 10.5 2.4 13.1 2.4 13.5 2.4 14.5 2.5 15.5 2.6 16 2.8 16.4 2.9 16.8 3.2 17.2 3.5 17.5 3.9 17.9 4.2 18.1 4.7 18.3 5 18.4 5.5 18.6 6.5 18.6 7.6 18.7 7.9 18.7 10.5 18.7 13.2 18.7 13.5 18.7 14.6 18.6 15.5 18.6 16.1 18.4 16.4 18.3 16.9 18.1 17.2 17.9 17.6 17.5 17.9 17.2 18.1 16.8 18.3 16.4 18.5 16 18.6 15.5 18.7 14.5 18.7 13.5 18.7 13.1 18.7 10.5 18.7 7.8 18.7 7.5 18.7 6.5 18.6 5.5 18.5 5 18.3 4.6 18.1 4.1 17.9 3.8 17.6 3.5 17.2 3.1 16.9 2.9 16.4 2.7 16.1 2.6 15.5 2.4 14.6 2.4Z" fill="#333333"></path> <path d="M5.4 10.5C5.4 7.6 7.7 5.4 10.5 5.4 13.4 5.4 15.7 7.7 15.7 10.5 15.7 13.3 13.4 15.6 10.5 15.6 7.7 15.6 5.4 13.3 5.4 10.5ZM7.2 10.5C7.2 12.3 8.7 13.8 10.5 13.8 12.4 13.8 13.9 12.3 13.9 10.5 13.9 8.6 12.4 7.2 10.5 7.2 8.7 7.2 7.2 8.6 7.2 10.5Z" fill="#333333"></path> <path d="M15.9 6.3C16.5 6.3 17.1 5.8 17.1 5.2 17.1 4.5 16.5 4 15.9 4 15.2 4 14.7 4.5 14.7 5.2 14.7 5.8 15.2 6.3 15.9 6.3Z" fill="#333333"></path></svg>