<svg xmlns:xlink="http://www.w3.org/1999/xlink" fill="none" height="17" viewBox="0 0 21 17" width="21" xmlns="http://www.w3.org/2000/svg"><path d="M6.6 16.9C14.4 16.9 18.7 10.4 18.7 4.8 18.7 4.6 18.7 4.4 18.7 4.2 19.5 3.6 20.3 2.9 20.8 2 20.1 2.3 19.3 2.6 18.4 2.7 19.3 2.1 20 1.3 20.3 0.3 19.4 0.8 18.5 1.2 17.6 1.4 16.8 0.5 15.7 0 14.4 0 12.1 0 10.2 1.9 10.2 4.3 10.2 4.6 10.2 4.9 10.3 5.3 6.7 5.1 3.6 3.4 1.5 0.8 1.1 1.4 0.9 2.1 0.9 2.9 0.9 4.4 1.6 5.7 2.8 6.5 2.1 6.5 1.4 6.3 0.8 6 0.8 6 0.8 6 0.8 6 0.8 8.1 2.3 9.8 4.3 10.2 3.9 10.3 3.5 10.4 3.1 10.4 2.9 10.4 2.6 10.3 2.3 10.3 2.9 12 4.5 13.2 6.3 13.3 4.9 14.4 3 15.1 1 15.1 0.7 15.1 0.3 15.1 0 15 1.9 16.2 4.1 16.9 6.6 16.9" fill="#333333"></path></svg>